<svg width="362" height="334" viewBox="0 0 362 334" fill="none" xmlns="http://www.w3.org/2000/svg">
<path d="M324.964 0H36.9277C16.5331 0 0 16.254 0 36.3043V297.696C0 317.746 16.5331 334 36.9277 334H324.964C345.358 334 361.892 317.746 361.892 297.696V36.3043C361.892 16.254 345.358 0 324.964 0Z" fill="url(#paint0_linear_2024_29)"/>
<path d="M313.885 43.5652L227.046 47.6306C223.11 47.815 220.008 51.0074 220.008 54.8833V125.563C220.008 129.573 223.317 132.824 227.393 132.824H299.535C303.376 132.824 306.574 129.929 306.899 126.165L313.885 43.5652Z" fill="white"/>
<path d="M228.952 122.67H184.247H139.55V162.223V201.776H184.247H228.952V162.223V122.67Z" fill="white"/>
<path d="M154.343 54.8881C154.343 51.0103 151.249 47.8169 147.305 47.6352L59.0843 43.5652L67.3709 126.274C67.7402 129.991 70.9233 132.824 74.7195 132.824H146.957C151.042 132.824 154.343 129.573 154.343 125.563V54.8881Z" fill="white"/>
<path d="M306.581 204.391C306.441 200.481 303.176 197.381 299.196 197.381H220.008V275.23C220.008 279.143 223.162 282.352 227.142 282.486L309.417 285.276L306.581 204.391Z" fill="white"/>
<path d="M154.343 204.642C154.343 200.632 151.042 197.381 146.957 197.381H75.0667C71.1228 197.381 67.8805 200.425 67.6885 204.296L63.5526 289.67L147.571 282.798C151.404 282.486 154.343 279.339 154.343 275.563V204.642Z" fill="white"/>
<defs>
<linearGradient id="paint0_linear_2024_29" x1="0" y1="0" x2="332.926" y2="360.731" gradientUnits="userSpaceOnUse">
<stop stop-color="#00D3F2"/>
<stop offset="0.5" stop-color="#E12AFB"/>
<stop offset="1" stop-color="#FFB900"/>
</linearGradient>
</defs>
</svg>
