<svg width="166" height="46" viewBox="0 0 166 46" fill="none" xmlns="http://www.w3.org/2000/svg">
<path d="M0 8.6624H8.6112C10.6965 8.6624 12.6715 8.89547 14.536 9.3616C16.4251 9.82773 18.0688 10.5883 19.4672 11.6432C20.8656 12.6736 21.9696 14.0229 22.7792 15.6912C23.6133 17.3595 24.0304 19.3835 24.0304 21.7632C24.0304 23.8731 23.6256 25.7376 22.816 27.3568C22.0309 28.9515 20.9637 30.3008 19.6144 31.4048C18.2651 32.4843 16.7072 33.3061 14.9408 33.8704C13.1744 34.4347 11.3221 34.7168 9.384 34.7168H0V8.6624ZM5.7408 29.4176H8.7216C10.0464 29.4176 11.2731 29.2827 12.4016 29.0128C13.5547 28.7429 14.5483 28.3013 15.3824 27.688C16.2165 27.0501 16.8667 26.2283 17.3328 25.2224C17.8235 24.192 18.0688 22.9408 18.0688 21.4688C18.0688 20.1931 17.8235 19.0891 17.3328 18.1568C16.8667 17.2 16.2288 16.4149 15.4192 15.8016C14.6096 15.1883 13.6528 14.7344 12.5488 14.44C11.4693 14.1211 10.3285 13.9616 9.1264 13.9616H5.7408V29.4176Z" fill="black"/>
<path d="M43.2322 31.6256C42.349 32.7541 41.2328 33.6251 39.8834 34.2384C38.5341 34.8517 37.1357 35.1584 35.6882 35.1584C34.3144 35.1584 33.0141 34.9376 31.7874 34.496C30.5853 34.0544 29.5304 33.4288 28.6226 32.6192C27.7394 31.7851 27.0402 30.7915 26.525 29.6384C26.0098 28.4853 25.7522 27.1973 25.7522 25.7744C25.7522 24.3515 26.0098 23.0635 26.525 21.9104C27.0402 20.7573 27.7394 19.776 28.6226 18.9664C29.5304 18.1323 30.5853 17.4944 31.7874 17.0528C33.0141 16.6112 34.3144 16.3904 35.6882 16.3904C36.964 16.3904 38.117 16.6112 39.1474 17.0528C40.2024 17.4944 41.0856 18.1323 41.797 18.9664C42.533 19.776 43.0973 20.7573 43.4898 21.9104C43.8824 23.0635 44.0786 24.3515 44.0786 25.7744V27.504H31.2722C31.493 28.5589 31.9714 29.4053 32.7074 30.0432C33.4434 30.6565 34.3512 30.9632 35.4306 30.9632C36.3384 30.9632 37.0989 30.7669 37.7122 30.3744C38.3501 29.9573 38.9021 29.4299 39.3682 28.792L43.2322 31.6256ZM38.5586 23.7504C38.5832 22.8181 38.2765 22.0208 37.6386 21.3584C37.0008 20.696 36.1789 20.3648 35.173 20.3648C34.5597 20.3648 34.02 20.4629 33.5538 20.6592C33.0877 20.8555 32.6829 21.1131 32.3394 21.432C32.0205 21.7264 31.7629 22.0821 31.5666 22.4992C31.3949 22.8917 31.2968 23.3088 31.2722 23.7504H38.5586Z" fill="black"/>
<path d="M56.6355 22.0944C55.8259 21.0885 54.7587 20.5856 53.4339 20.5856C52.9678 20.5856 52.5139 20.696 52.0723 20.9168C51.6307 21.1376 51.4099 21.5179 51.4099 22.0576C51.4099 22.4992 51.6307 22.8304 52.0723 23.0512C52.5384 23.2475 53.115 23.4315 53.8019 23.6032C54.5134 23.7504 55.2616 23.9221 56.0467 24.1184C56.8563 24.2901 57.6046 24.5723 58.2915 24.9648C59.003 25.3573 59.5795 25.8971 60.0211 26.584C60.4872 27.2464 60.7203 28.1419 60.7203 29.2704C60.7203 30.4235 60.4627 31.3803 59.9475 32.1408C59.4568 32.8768 58.819 33.4779 58.0339 33.944C57.2488 34.3856 56.3656 34.6923 55.3843 34.864C54.403 35.0603 53.4339 35.1584 52.4771 35.1584C51.2259 35.1584 49.9624 34.9867 48.6867 34.6432C47.411 34.2752 46.3315 33.6373 45.4483 32.7296L48.7971 29.0128C49.3123 29.6507 49.8766 30.1413 50.4899 30.4848C51.1278 30.8037 51.8638 30.9632 52.6979 30.9632C53.3358 30.9632 53.9123 30.8773 54.4275 30.7056C54.9427 30.5093 55.2003 30.1659 55.2003 29.6752C55.2003 29.2091 54.9672 28.8656 54.5011 28.6448C54.0595 28.3995 53.483 28.2032 52.7715 28.056C52.0846 27.8843 51.3363 27.7125 50.5267 27.5408C49.7416 27.3445 48.9934 27.0624 48.2819 26.6944C47.595 26.3264 47.0184 25.8112 46.5523 25.1488C46.1107 24.4619 45.8899 23.5541 45.8899 22.4256C45.8899 21.3707 46.0984 20.4629 46.5155 19.7024C46.9571 18.9419 47.5214 18.3163 48.2083 17.8256C48.9198 17.3349 49.7294 16.9792 50.6371 16.7584C51.5448 16.5131 52.4648 16.3904 53.3971 16.3904C54.5747 16.3904 55.7646 16.5621 56.9667 16.9056C58.1688 17.2491 59.187 17.8624 60.0211 18.7456L56.6355 22.0944Z" fill="black"/>
<path d="M62.7035 16.832H68.2235V34.7168H62.7035V16.832ZM62.2619 11.2016C62.2619 10.3184 62.5685 9.57013 63.1819 8.9568C63.8197 8.31893 64.5803 8 65.4635 8C66.3467 8 67.0949 8.31893 67.7083 8.9568C68.3461 9.57013 68.6651 10.3184 68.6651 11.2016C68.6651 12.0848 68.3461 12.8453 67.7083 13.4832C67.0949 14.0965 66.3467 14.4032 65.4635 14.4032C64.5803 14.4032 63.8197 14.0965 63.1819 13.4832C62.5685 12.8453 62.2619 12.0848 62.2619 11.2016Z" fill="black"/>
<path d="M90.0372 33.208C90.0372 36.5936 89.1786 39.1573 87.4612 40.8992C85.7684 42.6656 83.1802 43.5488 79.6964 43.5488C78.1018 43.5488 76.5316 43.3648 74.986 42.9968C73.4404 42.6533 72.0175 41.9664 70.7172 40.936L73.7716 36.3728C74.6303 37.0843 75.5258 37.6485 76.458 38.0656C77.4148 38.4827 78.4575 38.6912 79.586 38.6912C81.2788 38.6912 82.5178 38.2741 83.3028 37.44C84.1124 36.6304 84.5172 35.5877 84.5172 34.312V32.5824H84.4436C83.8058 33.4411 83.0084 34.0544 82.0516 34.4224C81.1194 34.7659 80.2362 34.9376 79.402 34.9376C78.0772 34.9376 76.8751 34.7168 75.7956 34.2752C74.7162 33.8091 73.7839 33.1712 72.9988 32.3616C72.2383 31.5275 71.6495 30.5461 71.2324 29.4176C70.8154 28.2891 70.6068 27.0501 70.6068 25.7008C70.6068 24.5232 70.7908 23.3701 71.1588 22.2416C71.5514 21.1131 72.0911 20.1195 72.778 19.2608C73.4895 18.4021 74.3482 17.7152 75.354 17.2C76.3599 16.6603 77.5007 16.3904 78.7764 16.3904C79.5615 16.3904 80.273 16.4763 80.9108 16.648C81.5732 16.8197 82.162 17.0405 82.6772 17.3104C83.1924 17.5803 83.634 17.8869 84.002 18.2304C84.37 18.5493 84.6644 18.8683 84.8852 19.1872H84.9588V16.832H90.0372V33.208ZM76.1268 25.664C76.1268 26.2528 76.2372 26.8171 76.458 27.3568C76.6788 27.872 76.9855 28.3381 77.378 28.7552C77.7951 29.1477 78.2612 29.4667 78.7764 29.712C79.3162 29.9573 79.905 30.08 80.5428 30.08C81.1562 30.08 81.7327 29.9573 82.2724 29.712C82.8122 29.4667 83.2783 29.1477 83.6708 28.7552C84.0879 28.3381 84.4068 27.872 84.6276 27.3568C84.8484 26.8171 84.9588 26.2528 84.9588 25.664C84.9588 25.0752 84.8484 24.5232 84.6276 24.008C84.4068 23.4683 84.0879 23.0021 83.6708 22.6096C83.2783 22.1925 82.8122 21.8613 82.2724 21.616C81.7327 21.3707 81.1562 21.248 80.5428 21.248C79.905 21.248 79.3162 21.3707 78.7764 21.616C78.2612 21.8613 77.7951 22.1925 77.378 22.6096C76.9855 23.0021 76.6788 23.4683 76.458 24.008C76.2372 24.5232 76.1268 25.0752 76.1268 25.664Z" fill="black"/>
<path d="M93.5289 16.832H98.8281V19.2608H98.9017C99.0735 18.9173 99.3188 18.5739 99.6377 18.2304C99.9567 17.8869 100.337 17.5803 100.779 17.3104C101.22 17.0405 101.723 16.8197 102.287 16.648C102.852 16.4763 103.465 16.3904 104.127 16.3904C105.526 16.3904 106.654 16.6112 107.513 17.0528C108.372 17.4699 109.034 18.0587 109.5 18.8192C109.991 19.5797 110.322 20.4752 110.494 21.5056C110.665 22.536 110.751 23.6523 110.751 24.8544V34.7168H105.231V25.9584C105.231 25.4432 105.207 24.9157 105.158 24.376C105.133 23.8117 105.023 23.2965 104.827 22.8304C104.655 22.3643 104.373 21.984 103.98 21.6896C103.612 21.3952 103.072 21.248 102.361 21.248C101.649 21.248 101.073 21.3829 100.631 21.6528C100.19 21.8981 99.8463 22.2416 99.6009 22.6832C99.3801 23.1003 99.2329 23.5787 99.1593 24.1184C99.0857 24.6581 99.0489 25.2224 99.0489 25.8112V34.7168H93.5289V16.832Z" fill="black"/>
<rect x="117" width="49" height="46" rx="5" fill="url(#paint0_linear_20_126)"/>
<path d="M159.5 6L147.742 6.55991C147.209 6.5853 146.789 7.02498 146.789 7.55878V17.2931C146.789 17.8454 147.237 18.2931 147.789 18.2931H157.557C158.077 18.2931 158.51 17.8944 158.554 17.376L159.5 6Z" fill="white"/>
<path d="M148 16.8947H141.947H135.895V22.3421V27.7895H141.947H148V22.3421V16.8947Z" fill="white"/>
<path d="M137.898 7.55944C137.898 7.02538 137.479 6.58557 136.945 6.56054L125 6L126.122 17.3911C126.172 17.903 126.603 18.2931 127.117 18.2931H136.898C137.451 18.2931 137.898 17.8454 137.898 17.2931V7.55944Z" fill="white"/>
<path d="M158.511 28.1497C158.492 27.6112 158.05 27.1842 157.511 27.1842H146.789V37.9059C146.789 38.4448 147.216 38.8868 147.755 38.9053L158.895 39.2895L158.511 28.1497Z" fill="white"/>
<path d="M137.898 28.1842C137.898 27.6319 137.451 27.1842 136.898 27.1842H127.164C126.63 27.1842 126.191 27.6035 126.165 28.1366L125.605 39.8947L136.981 38.9483C137.5 38.9052 137.898 38.4719 137.898 37.9518V28.1842Z" fill="white"/>
<defs>
<linearGradient id="paint0_linear_20_126" x1="117" y1="0" x2="162.908" y2="48.9024" gradientUnits="userSpaceOnUse">
<stop stop-color="#00D3F2"/>
<stop offset="0.5" stop-color="#E12AFB"/>
<stop offset="1" stop-color="#FFB900"/>
</linearGradient>
</defs>
</svg>
